<svg width="142" height="48" viewBox="0 0 142 48" fill="none" xmlns="http://www.w3.org/2000/svg">
<g clip-path="url(#clip0_1_12)">
<path fill-rule="evenodd" clip-rule="evenodd" d="M27.4694 7.10722L24.9257 0L22.382 7.10722H14.1505L14.1865 7.13102H0.0303955V47.451H8.72263V31.1502H24.965V24.123H8.72263V14.1582H19.8584L18.2662 18.6071L24.9257 14.2145L31.5852 18.6071L29.0415 11.4998L35.701 7.10722H27.4694Z" fill="#0059FF"/>
<mask id="path-2-inside-1_1_12" fill="white">
<path d="M33.9742 12.2743H44.3183V15.035H37.389V18.9497H43.77V21.7104H37.389V28.1143H33.9742V12.2743ZM46.9807 12.2743H50.3955V28.1143H46.9807V12.2743ZM59.4723 21.5746L59.921 24.2674H60.0456L60.5441 21.552L63.8841 12.2743H67.4734L60.9928 28.2274H58.5501L52.0196 12.2743H55.9827L59.4723 21.5746ZM68.7337 12.2743H79.0781V15.035H72.1484V18.7234H78.455V21.4841H72.1484V25.3536H79.2028V28.1143H68.7337V12.2743ZM95.5879 23.8601C95.5879 23.3774 95.3885 22.9851 94.9897 22.6834C94.6075 22.3817 94.1173 22.1102 93.5191 21.8688C92.9375 21.6123 92.2977 21.3559 91.5998 21.0994C90.9185 20.8279 90.2788 20.5035 89.6805 20.1264C89.0989 19.7342 88.6087 19.2514 88.2099 18.6782C87.8277 18.1049 87.6367 17.3733 87.6367 16.4832C87.6367 15.7138 87.7779 15.0501 88.0604 14.4919C88.3429 13.9186 88.7417 13.4434 89.2568 13.0663C89.7885 12.6891 90.4117 12.4101 91.1262 12.229C91.8408 12.048 92.6384 11.9575 93.5191 11.9575C94.5327 11.9575 95.4882 12.0405 96.3855 12.2064C97.2828 12.3573 98.0223 12.5835 98.6039 12.8853L97.5321 15.4875C97.1665 15.2763 96.6181 15.0878 95.887 14.9218C95.1558 14.7408 94.3665 14.6503 93.5191 14.6503C92.7215 14.6503 92.1066 14.7936 91.6746 15.0802C91.2592 15.3669 91.0514 15.7515 91.0514 16.2343C91.0514 16.6869 91.2425 17.064 91.6247 17.3657C92.0235 17.6674 92.5137 17.9465 93.0953 18.203C93.6935 18.4594 94.3333 18.7234 95.0146 18.995C95.7125 19.2665 96.3523 19.5984 96.9339 19.9906C97.5321 20.3678 98.0223 20.843 98.4045 21.4162C98.8033 21.9744 99.0027 22.6759 99.0027 23.5207C99.0027 24.3655 98.8448 25.0971 98.5291 25.7157C98.23 26.3191 97.798 26.8245 97.233 27.2318C96.6846 27.6391 96.0116 27.9408 95.214 28.1369C94.433 28.333 93.5689 28.4311 92.6217 28.4311C91.3755 28.4311 90.2787 28.3255 89.3316 28.1143C88.3844 27.9031 87.6865 27.6919 87.2378 27.4807L88.3346 24.8331C88.5173 24.9237 88.75 25.0217 89.0325 25.1273C89.3316 25.2329 89.6639 25.331 90.0295 25.4215C90.3951 25.512 90.7773 25.5874 91.1761 25.6478C91.5915 25.7081 92.0152 25.7383 92.4473 25.7383C93.4609 25.7383 94.2336 25.5874 94.7653 25.2857C95.3137 24.9689 95.5879 24.4937 95.5879 23.8601ZM113.666 15.035H108.581V28.1143H105.166V15.035H100.056V12.2743H113.666V15.035ZM122.097 24.6069H116.738L115.417 28.1143H112.002L118.283 12.1611H120.8L127.082 28.1143H123.492L122.097 24.6069ZM117.61 22.1177H121.349L120.053 18.5877L119.529 16.0985H119.405L118.881 18.6103L117.61 22.1177ZM128.589 12.4327C128.971 12.3723 129.379 12.3195 129.811 12.2743C130.259 12.2139 130.7 12.1687 131.132 12.1385C131.58 12.1083 132.012 12.0857 132.428 12.0706C132.843 12.0555 133.225 12.048 133.574 12.048C134.389 12.048 135.186 12.1159 135.967 12.2517C136.765 12.3874 137.471 12.6213 138.086 12.9531C138.717 13.285 139.216 13.7451 139.581 14.3335C139.964 14.9067 140.155 15.6309 140.155 16.5058C140.155 17.8032 139.822 18.8592 139.158 19.6738C138.493 20.4885 137.604 21.0542 136.491 21.371L137.712 22.0725L141.7 28.1143H137.762L133.799 21.9141L132.004 21.6199V28.1143H128.589V12.4327ZM133.824 14.8087C133.475 14.8087 133.126 14.8162 132.777 14.8313C132.444 14.8464 132.187 14.8766 132.004 14.9218V19.5154H133.45C134.397 19.5154 135.153 19.3193 135.718 18.9271C136.283 18.5349 136.565 17.8862 136.565 16.981C136.565 16.3022 136.333 15.7742 135.868 15.397C135.402 15.0048 134.721 14.8087 133.824 14.8087Z"/>
</mask>
<path d="M33.9742 12.2743H44.3183V15.035H37.389V18.9497H43.77V21.7104H37.389V28.1143H33.9742V12.2743ZM46.9807 12.2743H50.3955V28.1143H46.9807V12.2743ZM59.4723 21.5746L59.921 24.2674H60.0456L60.5441 21.552L63.8841 12.2743H67.4734L60.9928 28.2274H58.5501L52.0196 12.2743H55.9827L59.4723 21.5746ZM68.7337 12.2743H79.0781V15.035H72.1484V18.7234H78.455V21.4841H72.1484V25.3536H79.2028V28.1143H68.7337V12.2743ZM95.5879 23.8601C95.5879 23.3774 95.3885 22.9851 94.9897 22.6834C94.6075 22.3817 94.1173 22.1102 93.5191 21.8688C92.9375 21.6123 92.2977 21.3559 91.5998 21.0994C90.9185 20.8279 90.2788 20.5035 89.6805 20.1264C89.0989 19.7342 88.6087 19.2514 88.2099 18.6782C87.8277 18.1049 87.6367 17.3733 87.6367 16.4832C87.6367 15.7138 87.7779 15.0501 88.0604 14.4919C88.3429 13.9186 88.7417 13.4434 89.2568 13.0663C89.7885 12.6891 90.4117 12.4101 91.1262 12.229C91.8408 12.048 92.6384 11.9575 93.5191 11.9575C94.5327 11.9575 95.4882 12.0405 96.3855 12.2064C97.2828 12.3573 98.0223 12.5835 98.6039 12.8853L97.5321 15.4875C97.1665 15.2763 96.6181 15.0878 95.887 14.9218C95.1558 14.7408 94.3665 14.6503 93.5191 14.6503C92.7215 14.6503 92.1066 14.7936 91.6746 15.0802C91.2592 15.3669 91.0514 15.7515 91.0514 16.2343C91.0514 16.6869 91.2425 17.064 91.6247 17.3657C92.0235 17.6674 92.5137 17.9465 93.0953 18.203C93.6935 18.4594 94.3333 18.7234 95.0146 18.995C95.7125 19.2665 96.3523 19.5984 96.9339 19.9906C97.5321 20.3678 98.0223 20.843 98.4045 21.4162C98.8033 21.9744 99.0027 22.6759 99.0027 23.5207C99.0027 24.3655 98.8448 25.0971 98.5291 25.7157C98.23 26.3191 97.798 26.8245 97.233 27.2318C96.6846 27.6391 96.0116 27.9408 95.214 28.1369C94.433 28.333 93.5689 28.4311 92.6217 28.4311C91.3755 28.4311 90.2787 28.3255 89.3316 28.1143C88.3844 27.9031 87.6865 27.6919 87.2378 27.4807L88.3346 24.8331C88.5173 24.9237 88.75 25.0217 89.0325 25.1273C89.3316 25.2329 89.6639 25.331 90.0295 25.4215C90.3951 25.512 90.7773 25.5874 91.1761 25.6478C91.5915 25.7081 92.0152 25.7383 92.4473 25.7383C93.4609 25.7383 94.2336 25.5874 94.7653 25.2857C95.3137 24.9689 95.5879 24.4937 95.5879 23.8601ZM113.666 15.035H108.581V28.1143H105.166V15.035H100.056V12.2743H113.666V15.035ZM122.097 24.6069H116.738L115.417 28.1143H112.002L118.283 12.1611H120.8L127.082 28.1143H123.492L122.097 24.6069ZM117.61 22.1177H121.349L120.053 18.5877L119.529 16.0985H119.405L118.881 18.6103L117.61 22.1177ZM128.589 12.4327C128.971 12.3723 129.379 12.3195 129.811 12.2743C130.259 12.2139 130.7 12.1687 131.132 12.1385C131.58 12.1083 132.012 12.0857 132.428 12.0706C132.843 12.0555 133.225 12.048 133.574 12.048C134.389 12.048 135.186 12.1159 135.967 12.2517C136.765 12.3874 137.471 12.6213 138.086 12.9531C138.717 13.285 139.216 13.7451 139.581 14.3335C139.964 14.9067 140.155 15.6309 140.155 16.5058C140.155 17.8032 139.822 18.8592 139.158 19.6738C138.493 20.4885 137.604 21.0542 136.491 21.371L137.712 22.0725L141.7 28.1143H137.762L133.799 21.9141L132.004 21.6199V28.1143H128.589V12.4327ZM133.824 14.8087C133.475 14.8087 133.126 14.8162 132.777 14.8313C132.444 14.8464 132.187 14.8766 132.004 14.9218V19.5154H133.45C134.397 19.5154 135.153 19.3193 135.718 18.9271C136.283 18.5349 136.565 17.8862 136.565 16.981C136.565 16.3022 136.333 15.7742 135.868 15.397C135.402 15.0048 134.721 14.8087 133.824 14.8087Z" fill="white" stroke="#0066FF" stroke-width="2" mask="url(#path-2-inside-1_1_12)"/>
<path d="M42.3432 34.1074L42.5698 32.2012H42.4792L41.8296 33.7372L39.5787 37.3166H38.9141L36.5424 33.7234L35.8777 32.2012H35.8021L36.1043 34.0937V39.0857H34.1404V29.4857H36.0287L38.8536 33.8743L39.3521 34.9714H39.4126L39.8658 33.8469L42.5396 29.4857H44.4128V39.0857H42.3432V34.1074ZM46.132 32.6263C46.5348 32.4617 47.0132 32.3337 47.5671 32.2423C48.1209 32.1417 48.7 32.0914 49.3043 32.0914C49.828 32.0914 50.2661 32.1509 50.6186 32.2697C50.9711 32.3794 51.248 32.5394 51.4494 32.7497C51.6609 32.96 51.8069 33.2114 51.8875 33.504C51.9781 33.7966 52.0235 34.1257 52.0235 34.4914C52.0235 34.8937 52.0083 35.3006 51.9781 35.712C51.9479 36.1143 51.9278 36.512 51.9177 36.9052C51.9177 37.2983 51.9328 37.6823 51.963 38.0572C51.9932 38.4228 52.0688 38.7703 52.1896 39.0994H50.5883L50.2711 38.1532H50.1956C49.9941 38.4366 49.7122 38.6834 49.3496 38.8937C48.9971 39.0948 48.5389 39.1954 47.9749 39.1954C47.6224 39.1954 47.3052 39.1497 47.0232 39.0583C46.7413 38.9577 46.4996 38.8206 46.2981 38.6469C46.0967 38.464 45.9406 38.2537 45.8298 38.016C45.719 37.7692 45.6637 37.4949 45.6637 37.1932C45.6637 36.7726 45.7643 36.4206 45.9658 36.1372C46.1773 35.8446 46.4743 35.6114 46.8571 35.4377C47.2498 35.2548 47.7131 35.1314 48.2469 35.0674C48.7907 34.9943 49.3949 34.9714 50.0596 34.9989C50.1301 34.4868 50.0898 34.1212 49.9388 33.9017C49.7877 33.6732 49.4503 33.5589 48.9266 33.5589C48.5339 33.5589 48.116 33.5954 47.6728 33.6686C47.2398 33.7417 46.8822 33.8378 46.6003 33.9566L46.132 32.6263ZM48.6245 37.728C49.0173 37.728 49.3295 37.6503 49.5611 37.4949C49.7928 37.3303 49.9639 37.1566 50.0747 36.9737V36.0823C49.7626 36.0549 49.4604 36.0503 49.1683 36.0686C48.8864 36.0869 48.6346 36.128 48.413 36.192C48.1915 36.256 48.0152 36.3475 47.8843 36.4663C47.7534 36.5851 47.6879 36.736 47.6879 36.9189C47.6879 37.1748 47.7685 37.376 47.9296 37.5223C48.1009 37.6594 48.3324 37.728 48.6245 37.728ZM57.8408 33.9017C57.5286 33.8011 57.2466 33.7509 56.9949 33.7509C56.6424 33.7509 56.3453 33.8377 56.1036 34.0114C55.872 34.176 55.7158 34.3908 55.6353 34.656V39.0857H53.6715V32.2286H55.1972L55.4238 33.1337H55.4843C55.6554 32.7955 55.8871 32.5349 56.1791 32.352C56.4711 32.1691 56.8136 32.0777 57.2064 32.0777C57.4682 32.0777 57.7653 32.128 58.0977 32.2286L57.8408 33.9017ZM61.4601 36.2469H60.9314V39.0857H58.9676V29.4857H60.9314V35.1497L61.3846 34.9577L63.1067 32.2286H65.2669L63.4541 34.8343L62.6837 35.3554L63.5146 35.8903L65.5539 39.0857H63.3031L61.4601 36.2469ZM72.2535 38.496C71.9513 38.7154 71.5385 38.9028 71.0147 39.0583C70.5011 39.2046 69.9523 39.2777 69.3681 39.2777C68.1496 39.2777 67.2583 38.9577 66.6943 38.3177C66.1304 37.6686 65.8484 36.7817 65.8484 35.6572C65.8484 34.4503 66.1656 33.5452 66.8001 32.9417C67.4345 32.3383 68.3258 32.0366 69.4739 32.0366C69.8566 32.0366 70.2292 32.0823 70.5918 32.1737C70.9543 32.2651 71.2766 32.416 71.5586 32.6263C71.8406 32.8366 72.0672 33.12 72.2384 33.4766C72.4096 33.8332 72.4952 34.2766 72.4952 34.8069C72.4952 34.9989 72.4801 35.2046 72.4499 35.424C72.4298 35.6434 72.3945 35.872 72.3441 36.1097H67.8122C67.8424 36.6857 68.0036 37.12 68.2956 37.4126C68.5977 37.7052 69.0811 37.8514 69.7458 37.8514C70.1587 37.8514 70.5264 37.7966 70.8486 37.6869C71.1809 37.568 71.4327 37.4491 71.6039 37.3303L72.2535 38.496ZM69.4437 33.4629C68.9301 33.4629 68.5474 33.6046 68.2956 33.888C68.0539 34.1623 67.9079 34.5326 67.8575 34.9989H70.6673C70.7076 34.5052 70.622 34.1258 70.4105 33.8606C70.2091 33.5954 69.8868 33.4629 69.4437 33.4629ZM73.0966 32.2286H74.139V30.9394L76.103 30.432V32.2286H77.9459V33.7372H76.103V36.3703C76.103 36.8457 76.1528 37.1886 76.254 37.3989C76.3643 37.6 76.566 37.7006 76.8583 37.7006C77.0592 37.7006 77.2306 37.6823 77.3719 37.6457C77.523 37.6092 77.6891 37.5543 77.8704 37.4812L78.2178 38.8526C77.9459 38.9714 77.6287 39.072 77.2661 39.1543C76.9036 39.2366 76.5358 39.2777 76.1634 39.2777C75.4683 39.2777 74.9547 39.1178 74.6224 38.7977C74.3001 38.4686 74.139 37.9337 74.139 37.1932V33.7372H73.0966V32.2286ZM79.3146 32.2286H81.2784V39.0857H79.3146V32.2286ZM79.0275 30.2949C79.0275 30.0297 79.1333 29.8058 79.3448 29.6229C79.5668 29.4309 79.869 29.3349 80.2512 29.3349C80.6341 29.3349 80.9415 29.4309 81.1727 29.6229C81.4144 29.8058 81.5352 30.0297 81.5352 30.2949C81.5352 30.56 81.4144 30.784 81.1727 30.9669C80.9415 31.1406 80.6341 31.2274 80.2512 31.2274C79.869 31.2274 79.5668 31.1406 79.3448 30.9669C79.1333 30.784 79.0275 30.56 79.0275 30.2949ZM87.8285 39.0857V35.1909C87.8285 34.6332 87.7379 34.2309 87.5566 33.984C87.3852 33.7372 87.0883 33.6137 86.6653 33.6137C86.2922 33.6137 85.975 33.7143 85.7136 33.9154C85.4614 34.1074 85.2801 34.3497 85.1698 34.6423V39.0857H83.206V32.2286H84.7619L84.9885 33.1337H85.049C85.2801 32.8411 85.5875 32.5852 85.9704 32.3657C86.3526 32.1463 86.8466 32.0366 87.4509 32.0366C87.8232 32.0366 88.1556 32.0823 88.4479 32.1737C88.7394 32.2651 88.9864 32.416 89.1881 32.6263C89.389 32.8366 89.5401 33.1246 89.6413 33.4903C89.7417 33.8469 89.7924 34.2903 89.7924 34.8206V39.0857H87.8285ZM97.8274 39.0857C97.8274 40.0823 97.5306 40.8137 96.9362 41.28C96.3417 41.7554 95.5109 41.9932 94.4436 41.9932C93.7185 41.9932 93.1445 41.9474 92.7215 41.856C92.3083 41.7646 91.9964 41.6686 91.7849 41.568L92.1928 40.1554C92.4246 40.2377 92.6913 40.32 92.9934 40.4023C93.3053 40.4846 93.6883 40.5257 94.1415 40.5257C94.8266 40.5257 95.2896 40.3886 95.5313 40.1143C95.7828 39.8491 95.9089 39.4743 95.9089 38.9897V38.5509H95.8485C95.4958 38.9806 94.8719 39.1954 93.9753 39.1954C92.9987 39.1954 92.2683 38.9212 91.7849 38.3726C91.3113 37.824 91.0749 36.9646 91.0749 35.7943C91.0749 34.5691 91.3974 33.6412 92.0417 33.0103C92.686 32.3794 93.6226 32.064 94.8515 32.064C95.4958 32.064 96.0698 32.1052 96.5736 32.1874C97.0872 32.2697 97.5049 32.3657 97.8274 32.4754V39.0857ZM94.504 37.7692C94.887 37.7692 95.1785 37.6915 95.3802 37.536C95.5917 37.3806 95.7526 37.1474 95.8636 36.8366V33.7509C95.5517 33.632 95.1634 33.5726 94.7004 33.5726C94.1966 33.5726 93.8039 33.7463 93.5221 34.0937C93.2404 34.432 93.0991 34.976 93.0991 35.7257C93.0991 36.3931 93.22 36.9006 93.4617 37.248C93.7034 37.5955 94.0508 37.7692 94.504 37.7692ZM111.605 34.1074L111.832 32.2012H111.741L111.092 33.7372L108.841 37.3166H108.176L105.804 33.7234L105.14 32.2012H105.064L105.366 34.0937V39.0857H103.402V29.4857H105.291L108.116 33.8743L108.614 34.9714H108.675L109.128 33.8469L111.802 29.4857H113.675V39.0857H111.605V34.1074ZM121.482 38.496C121.18 38.7154 120.767 38.9028 120.243 39.0583C119.729 39.2046 119.181 39.2777 118.596 39.2777C117.378 39.2777 116.487 38.9577 115.923 38.3177C115.359 37.6686 115.077 36.7817 115.077 35.6572C115.077 34.4503 115.394 33.5452 116.028 32.9417C116.663 32.3383 117.554 32.0366 118.702 32.0366C119.085 32.0366 119.458 32.0823 119.82 32.1737C120.183 32.2651 120.505 32.416 120.787 32.6263C121.069 32.8366 121.296 33.12 121.467 33.4766C121.638 33.8332 121.723 34.2766 121.723 34.8069C121.723 34.9989 121.708 35.2046 121.678 35.424C121.659 35.6434 121.623 35.872 121.572 36.1097H117.041C117.071 36.6857 117.232 37.12 117.524 37.4126C117.826 37.7052 118.309 37.8514 118.974 37.8514C119.387 37.8514 119.755 37.7966 120.077 37.6869C120.409 37.568 120.662 37.4491 120.832 37.3303L121.482 38.496ZM118.672 33.4629C118.158 33.4629 117.776 33.6046 117.524 33.888C117.282 34.1623 117.136 34.5326 117.086 34.9989H119.896C119.936 34.5052 119.85 34.1258 119.639 33.8606C119.438 33.5954 119.115 33.4629 118.672 33.4629ZM129.531 36.672C129.531 37.056 129.536 37.44 129.546 37.824C129.556 38.208 129.601 38.6332 129.682 39.0994H128.277L128.005 38.208H127.945C127.743 38.528 127.451 38.7886 127.069 38.9897C126.696 39.1817 126.253 39.2777 125.74 39.2777C124.792 39.2777 124.057 38.9943 123.534 38.4274C123.01 37.8606 122.748 36.9737 122.748 35.7669C122.748 34.5966 123.04 33.6869 123.625 33.0377C124.208 32.3886 125.064 32.064 126.193 32.064C126.505 32.064 126.761 32.0823 126.963 32.1189C127.164 32.1463 127.366 32.1966 127.567 32.2697V29.4857H129.531V36.672ZM126.193 37.7692C126.575 37.7692 126.877 37.6869 127.099 37.5223C127.32 37.3486 127.477 37.1017 127.567 36.7817V33.8743C127.426 33.7737 127.27 33.7006 127.099 33.6549C126.928 33.6 126.706 33.5726 126.434 33.5726C125.88 33.5726 125.462 33.7418 125.181 34.08C124.909 34.4183 124.773 34.9989 124.773 35.8217C124.773 36.4068 124.883 36.8777 125.105 37.2343C125.336 37.5909 125.699 37.7692 126.193 37.7692ZM131.42 32.2286H133.384V39.0857H131.42V32.2286ZM131.133 30.2949C131.133 30.0297 131.239 29.8058 131.45 29.6229C131.672 29.4309 131.974 29.3349 132.357 29.3349C132.739 29.3349 133.046 29.4309 133.278 29.6229C133.52 29.8058 133.641 30.0297 133.641 30.2949C133.641 30.56 133.52 30.784 133.278 30.9669C133.046 31.1406 132.739 31.2274 132.357 31.2274C131.974 31.2274 131.672 31.1406 131.45 30.9669C131.239 30.784 131.133 30.56 131.133 30.2949ZM135.266 32.6263C135.668 32.4617 136.147 32.3337 136.701 32.2423C137.254 32.1417 137.834 32.0914 138.438 32.0914C138.961 32.0914 139.399 32.1509 139.752 32.2697C140.105 32.3794 140.381 32.5394 140.583 32.7497C140.795 32.96 140.94 33.2114 141.021 33.504C141.112 33.7966 141.157 34.1257 141.157 34.4914C141.157 34.8937 141.142 35.3006 141.112 35.712C141.082 36.1143 141.061 36.512 141.051 36.9052C141.051 37.2983 141.066 37.6823 141.097 38.0572C141.127 38.4228 141.202 38.7703 141.323 39.0994H139.722L139.405 38.1532H139.329C139.128 38.4366 138.846 38.6834 138.483 38.8937C138.131 39.0948 137.673 39.1954 137.109 39.1954C136.756 39.1954 136.439 39.1497 136.157 39.0583C135.875 38.9577 135.633 38.8206 135.432 38.6469C135.23 38.464 135.075 38.2537 134.963 38.016C134.852 37.7692 134.797 37.4949 134.797 37.1932C134.797 36.7726 134.898 36.4206 135.099 36.1372C135.311 35.8446 135.608 35.6114 135.991 35.4377C136.383 35.2548 136.846 35.1314 137.38 35.0674C137.924 34.9943 138.529 34.9714 139.193 34.9989C139.263 34.4868 139.223 34.1212 139.072 33.9017C138.921 33.6732 138.584 33.5589 138.06 33.5589C137.668 33.5589 137.25 33.5954 136.806 33.6686C136.374 33.7417 136.016 33.8378 135.734 33.9566L135.266 32.6263ZM137.758 37.728C138.151 37.728 138.463 37.6503 138.695 37.4949C138.927 37.3303 139.097 37.1566 139.208 36.9737V36.0823C138.896 36.0549 138.594 36.0503 138.302 36.0686C138.02 36.0869 137.768 36.128 137.547 36.192C137.325 36.256 137.149 36.3475 137.018 36.4663C136.887 36.5851 136.822 36.736 136.822 36.9189C136.822 37.1748 136.902 37.376 137.063 37.5223C137.235 37.6594 137.466 37.728 137.758 37.728Z" fill="#0059FF"/>
<path d="M38.5424 42.5143L39.3672 44.6208L39.5304 45.3038H39.5666L39.6935 44.6126L40.2736 42.5143H41.3522L39.9564 46.6697H39.0863L38.1708 44.3657L38.053 43.8473H38.0077L37.8989 44.3739L37.0288 46.6697H36.1315L34.6722 42.5143H35.9502L36.6118 44.5796L36.7206 45.312H36.7659L36.92 44.5714L37.6723 42.5143H38.5424ZM45.3396 46.2747C45.1583 46.4064 44.9105 46.5188 44.5963 46.6121C44.2881 46.6999 43.9588 46.7438 43.6084 46.7438C42.8772 46.7438 42.3424 46.5518 42.0041 46.1678C41.6657 45.7783 41.4965 45.2462 41.4965 44.5714C41.4965 43.8473 41.6868 43.3042 42.0675 42.9422C42.4482 42.5801 42.983 42.3991 43.6718 42.3991C43.9014 42.3991 44.125 42.4265 44.3425 42.4814C44.5601 42.5362 44.7534 42.6267 44.9226 42.7529C45.0918 42.8791 45.2278 43.0491 45.3305 43.2631C45.4332 43.477 45.4846 43.7431 45.4846 44.0612C45.4846 44.1764 45.4755 44.2999 45.4574 44.4315C45.4453 44.5632 45.4241 44.7003 45.3939 44.843H42.6748C42.6929 45.1886 42.7896 45.4491 42.9648 45.6247C43.1461 45.8002 43.4361 45.888 43.835 45.888C44.0827 45.888 44.3033 45.8551 44.4966 45.7892C44.696 45.7179 44.8471 45.6466 44.9498 45.5753L45.3396 46.2747ZM43.6537 43.2548C43.3455 43.2548 43.1159 43.3399 42.9648 43.5099C42.8198 43.6745 42.7322 43.8967 42.702 44.1765H44.3878C44.412 43.8802 44.3607 43.6526 44.2338 43.4935C44.1129 43.3344 43.9196 43.2548 43.6537 43.2548ZM51.1834 46.6286V44.3904C51.1834 44.0119 51.1441 43.7431 51.0656 43.584C50.987 43.4249 50.8238 43.3454 50.5761 43.3454C50.3707 43.3454 50.2045 43.3975 50.0776 43.5017C49.9507 43.6004 49.854 43.7294 49.7876 43.8884V46.6286H48.6093V42.5143H49.5247L49.6607 43.0574H49.6969C49.8359 42.8818 50.0111 42.7282 50.2226 42.5966C50.4401 42.4649 50.7181 42.3991 51.0565 42.3991C51.3465 42.3991 51.5822 42.4539 51.7635 42.5636C51.9508 42.6679 52.0958 42.8462 52.1985 43.0985C52.3375 42.8846 52.5158 42.7145 52.7333 42.5883C52.9508 42.4622 53.2137 42.3991 53.5219 42.3991C53.7756 42.3991 53.9901 42.4265 54.1654 42.4814C54.3467 42.5362 54.4917 42.6322 54.6004 42.7694C54.7153 42.901 54.7999 43.0793 54.8542 43.3042C54.9086 43.5291 54.9358 43.8144 54.9358 44.16V46.6286H53.7575V44.3163C53.7575 43.9927 53.7182 43.7513 53.6397 43.5922C53.5672 43.4276 53.401 43.3454 53.1412 43.3454C52.9297 43.3454 52.7605 43.3975 52.6336 43.5017C52.5127 43.6059 52.4221 43.7486 52.3617 43.9296V46.6286H51.1834ZM55.8756 42.7529C56.1173 42.6542 56.4043 42.5774 56.7366 42.5225C57.069 42.4622 57.4164 42.432 57.779 42.432C58.0932 42.432 58.356 42.4676 58.5675 42.539C58.779 42.6048 58.9452 42.7008 59.066 42.827C59.1929 42.9531 59.2806 43.104 59.3289 43.2795C59.3833 43.4551 59.4105 43.6526 59.4105 43.872C59.4105 44.1134 59.4014 44.3575 59.3833 44.6043C59.3652 44.8457 59.3531 45.0843 59.347 45.3202C59.347 45.5561 59.3561 45.7865 59.3742 46.0114C59.3923 46.2308 59.4377 46.4393 59.5102 46.6368H58.5494L58.3591 46.069H58.3137C58.1929 46.2391 58.0237 46.3872 57.8062 46.5134C57.5947 46.634 57.3197 46.6944 56.9814 46.6944C56.7699 46.6944 56.5795 46.667 56.4103 46.6121C56.2411 46.5518 56.0961 46.4695 55.9753 46.3652C55.8544 46.2555 55.7608 46.1294 55.6943 45.9867C55.6278 45.8386 55.5946 45.674 55.5946 45.493C55.5946 45.2407 55.655 45.0295 55.7759 44.8594C55.9028 44.6839 56.081 44.544 56.3106 44.4398C56.5463 44.33 56.8243 44.256 57.1445 44.2176C57.4708 44.1737 57.8334 44.16 58.2322 44.1765C58.2745 43.8693 58.2503 43.6498 58.1597 43.5182C58.069 43.381 57.8666 43.3124 57.5524 43.3124C57.3167 43.3124 57.066 43.3344 56.8001 43.3783C56.5403 43.4222 56.3257 43.4798 56.1566 43.5511L55.8756 42.7529ZM57.3711 45.8139C57.6068 45.8139 57.7941 45.7673 57.9331 45.674C58.072 45.5753 58.1748 45.4711 58.2412 45.3614V44.8265C58.0539 44.81 57.8726 44.8073 57.6974 44.8183C57.5282 44.8292 57.3771 44.8539 57.2442 44.8923C57.1113 44.9307 57.0055 44.9856 56.927 45.0569C56.8484 45.1282 56.8091 45.2187 56.8091 45.3284C56.8091 45.482 56.8575 45.6027 56.9542 45.6905C57.0569 45.7728 57.1959 45.8139 57.3711 45.8139ZM61.8949 44.9252H61.5776V46.6286H60.3993V40.8686H61.5776V44.267L61.8495 44.1518L62.8828 42.5143H64.1789L63.0913 44.0777L62.629 44.3904L63.1275 44.7113L64.3512 46.6286H63.0007L61.8949 44.9252ZM68.3709 46.2747C68.1896 46.4064 67.9419 46.5188 67.6277 46.6121C67.3195 46.6999 66.9902 46.7438 66.6397 46.7438C65.9086 46.7438 65.3738 46.5518 65.0354 46.1678C64.697 45.7783 64.5278 45.2462 64.5278 44.5714C64.5278 43.8473 64.7182 43.3042 65.0989 42.9422C65.4795 42.5801 66.0143 42.3991 66.7032 42.3991C66.9328 42.3991 67.1563 42.4265 67.3739 42.4814C67.5914 42.5362 67.7848 42.6267 67.954 42.7529C68.1231 42.8791 68.2591 43.0491 68.3618 43.2631C68.4646 43.477 68.5159 43.7431 68.5159 44.0612C68.5159 44.1764 68.5069 44.2999 68.4887 44.4315C68.4766 44.5632 68.4555 44.7003 68.4253 44.843H65.7061C65.7243 45.1886 65.8209 45.4491 65.9962 45.6247C66.1774 45.8002 66.4675 45.888 66.8663 45.888C67.114 45.888 67.3346 45.8551 67.528 45.7892C67.7274 45.7179 67.8784 45.6466 67.9811 45.5753L68.3709 46.2747ZM66.685 43.2548C66.3769 43.2548 66.1472 43.3399 65.9962 43.5099C65.8511 43.6745 65.7635 43.8967 65.7333 44.1765H67.4192C67.4434 43.8802 67.392 43.6526 67.2651 43.4935C67.1443 43.3344 66.9509 43.2548 66.685 43.2548ZM75.4927 45.1803C75.4927 45.4107 75.4957 45.6411 75.5018 45.8715C75.5078 46.1019 75.5349 46.357 75.5833 46.6368H74.7404L74.5773 46.1019H74.541C74.4202 46.2939 74.2449 46.4503 74.0153 46.571C73.7917 46.6862 73.5259 46.7438 73.2177 46.7438C72.6497 46.7438 72.2086 46.5737 71.8944 46.2336C71.5802 45.8935 71.4231 45.3614 71.4231 44.6372C71.4231 43.9351 71.5983 43.3892 71.9488 42.9998C72.2992 42.6103 72.8128 42.4155 73.4896 42.4155C73.6769 42.4155 73.831 42.4265 73.9519 42.4484C74.0727 42.4649 74.1936 42.4951 74.3144 42.539V40.8686H75.4927V45.1803ZM73.4896 45.8386C73.7192 45.8386 73.9005 45.7893 74.0334 45.6905C74.1664 45.5863 74.26 45.4382 74.3144 45.2462V43.5017C74.2298 43.4414 74.1362 43.3975 74.0334 43.37C73.9307 43.3371 73.7978 43.3207 73.6346 43.3207C73.3023 43.3207 73.0515 43.4222 72.8823 43.6251C72.7192 43.8281 72.6376 44.1764 72.6376 44.6702C72.6376 45.0212 72.7041 45.3038 72.837 45.5177C72.976 45.7316 73.1935 45.8386 73.4896 45.8386ZM79.0283 43.5182C78.841 43.4578 78.6718 43.4276 78.5207 43.4276C78.3092 43.4276 78.131 43.4798 77.986 43.584C77.847 43.6827 77.7533 43.8116 77.705 43.9707V46.6286H76.5267V42.5143H77.4421L77.5781 43.0574H77.6143C77.7171 42.8544 77.856 42.698 78.0313 42.5883C78.2065 42.4786 78.412 42.4238 78.6476 42.4238C78.8047 42.4238 78.983 42.4539 79.1824 42.5143L79.0283 43.5182ZM83.3298 46.2747C83.1486 46.4064 82.9008 46.5188 82.5866 46.6121C82.2784 46.6999 81.9491 46.7438 81.5986 46.7438C80.8675 46.7438 80.3327 46.5518 79.9943 46.1678C79.656 45.7783 79.4868 45.2462 79.4868 44.5714C79.4868 43.8473 79.6771 43.3042 80.0578 42.9422C80.4385 42.5801 80.9732 42.3991 81.6621 42.3991C81.8917 42.3991 82.1153 42.4265 82.3328 42.4814C82.5503 42.5362 82.7437 42.6267 82.9129 42.7529C83.0821 42.8791 83.218 43.0491 83.3208 43.2631C83.4235 43.477 83.4749 43.7431 83.4749 44.0612C83.4749 44.1764 83.4658 44.2999 83.4477 44.4315C83.4356 44.5632 83.4144 44.7003 83.3842 44.843H80.6651C80.6832 45.1886 80.7799 45.4491 80.9551 45.6247C81.1364 45.8002 81.4264 45.888 81.8252 45.888C82.073 45.888 82.2935 45.8551 82.4869 45.7892C82.6863 45.7179 82.8374 45.6466 82.9401 45.5753L83.3298 46.2747ZM81.644 43.2548C81.3358 43.2548 81.1062 43.3399 80.9551 43.5099C80.8101 43.6745 80.7225 43.8967 80.6923 44.1765H82.3781C82.4023 43.8802 82.3509 43.6526 82.2241 43.4935C82.1032 43.3344 81.9098 43.2548 81.644 43.2548ZM84.28 42.7529C84.5217 42.6542 84.8088 42.5774 85.1411 42.5225C85.4734 42.4622 85.8209 42.432 86.1834 42.432C86.4976 42.432 86.7605 42.4676 86.972 42.539C87.1835 42.6048 87.3496 42.7008 87.4705 42.827C87.5974 42.9531 87.685 43.104 87.7333 43.2795C87.7877 43.4551 87.8149 43.6526 87.8149 43.872C87.8149 44.1134 87.8059 44.3575 87.7877 44.6043C87.7696 44.8457 87.7575 45.0843 87.7515 45.3202C87.7515 45.5561 87.7605 45.7865 87.7787 46.0114C87.7968 46.2308 87.8421 46.4393 87.9146 46.6368H86.9539L86.7635 46.069H86.7182C86.5973 46.2391 86.4282 46.3872 86.2106 46.5134C85.9991 46.634 85.7242 46.6944 85.3858 46.6944C85.1743 46.6944 84.984 46.667 84.8148 46.6121C84.6456 46.5518 84.5006 46.4695 84.3797 46.3652C84.2589 46.2555 84.1652 46.1294 84.0988 45.9867C84.0323 45.8386 83.9991 45.674 83.9991 45.493C83.9991 45.2407 84.0595 45.0295 84.1803 44.8594C84.3072 44.6839 84.4855 44.544 84.7151 44.4398C84.9508 44.33 85.2287 44.256 85.549 44.2176C85.8753 44.1737 86.2378 44.16 86.6366 44.1765C86.6789 43.8693 86.6548 43.6498 86.5641 43.5182C86.4735 43.381 86.2711 43.3124 85.9568 43.3124C85.7212 43.3124 85.4704 43.3344 85.2045 43.3783C84.9447 43.4222 84.7302 43.4798 84.561 43.5511L84.28 42.7529ZM85.7756 45.8139C86.0112 45.8139 86.1985 45.7673 86.3375 45.674C86.4765 45.5753 86.5792 45.4711 86.6457 45.3614V44.8265C86.4584 44.81 86.2771 44.8073 86.1019 44.8183C85.9327 44.8292 85.7816 44.8539 85.6487 44.8923C85.5157 44.9307 85.41 44.9856 85.3314 45.0569C85.2529 45.1282 85.2136 45.2187 85.2136 45.3284C85.2136 45.482 85.2619 45.6027 85.3586 45.6905C85.4613 45.7728 85.6003 45.8139 85.7756 45.8139ZM91.3778 46.6286V44.3904C91.3778 44.0119 91.3385 43.7431 91.2599 43.584C91.1814 43.4249 91.0182 43.3454 90.7705 43.3454C90.565 43.3454 90.3989 43.3975 90.272 43.5017C90.1451 43.6004 90.0484 43.7294 89.9819 43.8884V46.6286H88.8036V42.5143H89.7191L89.855 43.0574H89.8913C90.0303 42.8818 90.2055 42.7282 90.417 42.5966C90.6345 42.4649 90.9125 42.3991 91.2509 42.3991C91.5409 42.3991 91.7766 42.4539 91.9579 42.5636C92.1452 42.6679 92.2902 42.8462 92.3929 43.0985C92.5319 42.8846 92.7101 42.7145 92.9277 42.5883C93.1452 42.4622 93.4081 42.3991 93.7162 42.3991C93.97 42.3991 94.1845 42.4265 94.3598 42.4814C94.541 42.5362 94.6861 42.6322 94.7948 42.7694C94.9096 42.901 94.9942 43.0793 95.0486 43.3042C95.103 43.5291 95.1302 43.8144 95.1302 44.16V46.6286H93.9519V44.3163C93.9519 43.9927 93.9126 43.7513 93.8341 43.5922C93.7616 43.4276 93.5954 43.3454 93.3355 43.3454C93.1241 43.3454 92.9549 43.3975 92.828 43.5017C92.7071 43.6059 92.6165 43.7486 92.5561 43.9296V46.6286H91.3778ZM97.9732 45.493C97.9732 45.3833 97.9219 45.2955 97.8191 45.2297C97.7164 45.1639 97.5895 45.1035 97.4384 45.0487C97.2874 44.9938 97.1212 44.939 96.9399 44.8841C96.7587 44.8238 96.5925 44.7442 96.4414 44.6455C96.2904 44.5412 96.1635 44.4123 96.0607 44.2587C95.958 44.0996 95.9067 43.8967 95.9067 43.6498C95.9067 43.2439 96.0396 42.9339 96.3055 42.72C96.5713 42.506 96.955 42.3991 97.4566 42.3991C97.801 42.3991 98.1122 42.432 98.3901 42.4978C98.6681 42.5636 98.8856 42.6377 99.0427 42.72L98.7799 43.4935C98.6409 43.4441 98.4657 43.392 98.2542 43.3371C98.0427 43.2823 97.8282 43.2548 97.6107 43.2548C97.2602 43.2548 97.085 43.3783 97.085 43.6251C97.085 43.7239 97.1363 43.8034 97.239 43.8638C97.3418 43.9241 97.4687 43.9817 97.6197 44.0366C97.7708 44.0859 97.937 44.1408 98.1182 44.2011C98.2995 44.2615 98.4657 44.341 98.6167 44.4398C98.7678 44.533 98.8947 44.6564 98.9974 44.81C99.1001 44.9636 99.1515 45.1611 99.1515 45.4025C99.1515 45.8194 99.0035 46.1486 98.7074 46.3899C98.4173 46.6258 97.9792 46.7438 97.3931 46.7438C97.0729 46.7438 96.7707 46.7054 96.4867 46.6286C96.2088 46.5572 95.9822 46.4722 95.807 46.3735L96.1333 45.5753C96.2722 45.6466 96.4565 45.7179 96.6861 45.7892C96.9158 45.8551 97.1514 45.888 97.3931 45.888C97.5684 45.888 97.7073 45.8578 97.8101 45.7975C97.9188 45.7371 97.9732 45.6356 97.9732 45.493ZM105.422 46.3735C105.241 46.4942 105.02 46.5847 104.761 46.645C104.507 46.7108 104.244 46.7438 103.972 46.7438C103.609 46.7438 103.301 46.6916 103.047 46.5874C102.8 46.4832 102.597 46.3378 102.44 46.1513C102.283 45.9593 102.168 45.7289 102.096 45.4601C102.029 45.1913 101.996 44.8951 101.996 44.5714C101.996 43.8747 102.168 43.3399 102.513 42.9668C102.857 42.5883 103.359 42.3991 104.017 42.3991C104.35 42.3991 104.615 42.4238 104.815 42.4731C105.02 42.5225 105.205 42.5856 105.368 42.6624L105.087 43.5346C104.948 43.4743 104.809 43.4276 104.67 43.3947C104.537 43.3618 104.383 43.3454 104.208 43.3454C103.881 43.3454 103.634 43.4441 103.464 43.6416C103.295 43.8336 103.211 44.1435 103.211 44.5714C103.211 44.747 103.232 44.9088 103.274 45.0569C103.316 45.205 103.38 45.3339 103.464 45.4436C103.549 45.5534 103.658 45.6411 103.791 45.707C103.93 45.7673 104.09 45.7975 104.271 45.7975C104.47 45.7975 104.64 45.7755 104.779 45.7316C104.918 45.6823 105.041 45.6247 105.15 45.5588L105.422 46.3735ZM105.767 44.5714C105.767 43.8747 105.954 43.3399 106.329 42.9668C106.703 42.5883 107.229 42.3991 107.906 42.3991C108.268 42.3991 108.582 42.4512 108.848 42.5554C109.114 42.6596 109.335 42.8078 109.51 42.9998C109.685 43.1863 109.815 43.4139 109.9 43.6827C109.99 43.9515 110.036 44.2478 110.036 44.5714C110.036 45.2681 109.848 45.8057 109.474 46.1842C109.105 46.5572 108.582 46.7438 107.906 46.7438C107.543 46.7438 107.229 46.6916 106.963 46.5874C106.697 46.4832 106.474 46.3378 106.292 46.1513C106.117 45.9593 105.984 45.7289 105.893 45.4601C105.809 45.1913 105.767 44.8951 105.767 44.5714ZM106.981 44.5714C106.981 44.7524 106.999 44.9198 107.036 45.0734C107.072 45.227 107.126 45.3614 107.199 45.4766C107.271 45.5918 107.365 45.6823 107.48 45.7481C107.601 45.8085 107.743 45.8386 107.906 45.8386C108.214 45.8386 108.443 45.7371 108.595 45.5342C108.746 45.3312 108.821 45.0103 108.821 44.5714C108.821 44.1929 108.752 43.8884 108.613 43.658C108.474 43.4222 108.238 43.3042 107.906 43.3042C107.616 43.3042 107.389 43.403 107.226 43.6004C107.063 43.7979 106.981 44.1216 106.981 44.5714ZM113.426 46.6286V44.3904C113.426 44.0119 113.387 43.7431 113.308 43.584C113.23 43.4249 113.067 43.3454 112.819 43.3454C112.614 43.3454 112.447 43.3975 112.32 43.5017C112.194 43.6004 112.097 43.7294 112.03 43.8884V46.6286H110.852V42.5143H111.768L111.904 43.0574H111.94C112.079 42.8818 112.254 42.7282 112.466 42.5966C112.683 42.4649 112.961 42.3991 113.299 42.3991C113.589 42.3991 113.825 42.4539 114.006 42.5636C114.194 42.6679 114.339 42.8462 114.441 43.0985C114.58 42.8846 114.759 42.7145 114.976 42.5883C115.194 42.4622 115.457 42.3991 115.765 42.3991C116.019 42.3991 116.233 42.4265 116.408 42.4814C116.59 42.5362 116.735 42.6322 116.843 42.7694C116.958 42.901 117.043 43.0793 117.097 43.3042C117.152 43.5291 117.179 43.8144 117.179 44.16V46.6286H116V44.3163C116 43.9927 115.961 43.7513 115.883 43.5922C115.81 43.4276 115.644 43.3454 115.384 43.3454C115.173 43.3454 115.003 43.3975 114.876 43.5017C114.756 43.6059 114.665 43.7486 114.605 43.9296V46.6286H113.426ZM121.771 46.2747C121.59 46.4064 121.342 46.5188 121.028 46.6121C120.72 46.6999 120.39 46.7438 120.04 46.7438C119.309 46.7438 118.774 46.5518 118.436 46.1678C118.097 45.7783 117.928 45.2462 117.928 44.5714C117.928 43.8473 118.118 43.3042 118.499 42.9422C118.88 42.5801 119.414 42.3991 120.103 42.3991C120.333 42.3991 120.556 42.4265 120.774 42.4814C120.992 42.5362 121.185 42.6267 121.354 42.7529C121.523 42.8791 121.659 43.0491 121.762 43.2631C121.865 43.477 121.916 43.7431 121.916 44.0612C121.916 44.1764 121.907 44.2999 121.889 44.4315C121.877 44.5632 121.856 44.7003 121.825 44.843H119.106C119.124 45.1886 119.221 45.4491 119.396 45.6247C119.578 45.8002 119.868 45.888 120.266 45.888C120.514 45.888 120.735 45.8551 120.928 45.7892C121.128 45.7179 121.279 45.6466 121.381 45.5753L121.771 46.2747ZM120.085 43.2548C119.777 43.2548 119.547 43.3399 119.396 43.5099C119.251 43.6745 119.164 43.8967 119.133 44.1765H120.819C120.844 43.8802 120.792 43.6526 120.665 43.4935C120.544 43.3344 120.351 43.2548 120.085 43.2548ZM124.57 42.5143H125.195V41.7408L126.373 41.4363V42.5143H127.479V43.4194H126.373V44.9993C126.373 45.2846 126.403 45.4903 126.464 45.6164C126.53 45.7371 126.651 45.7975 126.826 45.7975C126.947 45.7975 127.05 45.7865 127.135 45.7646C127.225 45.7426 127.325 45.7097 127.434 45.6658L127.642 46.4887C127.479 46.56 127.289 46.6203 127.071 46.6697C126.854 46.7191 126.633 46.7438 126.409 46.7438C125.993 46.7438 125.684 46.6478 125.485 46.4558C125.292 46.2583 125.195 45.9374 125.195 45.493V43.4194H124.57V42.5143ZM130.703 43.5182C130.515 43.4578 130.346 43.4276 130.195 43.4276C129.984 43.4276 129.805 43.4798 129.66 43.584C129.521 43.6827 129.428 43.8116 129.379 43.9707V46.6286H128.201V42.5143H129.117L129.252 43.0574H129.289C129.391 42.8544 129.53 42.698 129.706 42.5883C129.881 42.4786 130.086 42.4238 130.322 42.4238C130.479 42.4238 130.657 42.4539 130.857 42.5143L130.703 43.5182ZM132.512 42.5143V44.8512C132.512 45.1858 132.554 45.4272 132.639 45.5753C132.729 45.7234 132.901 45.7975 133.155 45.7975C133.379 45.7975 133.563 45.7371 133.708 45.6164C133.859 45.4958 133.971 45.3476 134.043 45.1721V42.5143H135.222V45.3778C135.222 45.6027 135.234 45.8249 135.258 46.0443C135.282 46.2583 135.318 46.453 135.367 46.6286H134.479L134.27 46.0196H134.234C134.095 46.2281 133.901 46.4009 133.654 46.538C133.406 46.6752 133.113 46.7438 132.775 46.7438C132.545 46.7438 132.339 46.7163 132.158 46.6615C131.977 46.6066 131.826 46.5161 131.705 46.3899C131.584 46.2638 131.49 46.0937 131.424 45.8798C131.364 45.6658 131.333 45.397 131.333 45.0734V42.5143H132.512ZM139.881 46.2747C139.7 46.4064 139.452 46.5188 139.138 46.6121C138.83 46.6999 138.501 46.7438 138.15 46.7438C137.419 46.7438 136.884 46.5518 136.546 46.1678C136.207 45.7783 136.038 45.2462 136.038 44.5714C136.038 43.8473 136.229 43.3042 136.609 42.9422C136.99 42.5801 137.525 42.3991 138.214 42.3991C138.443 42.3991 138.667 42.4265 138.884 42.4814C139.102 42.5362 139.295 42.6267 139.464 42.7529C139.634 42.8791 139.77 43.0491 139.872 43.2631C139.975 43.477 140.026 43.7431 140.026 44.0612C140.026 44.1764 140.017 44.2999 139.999 44.4315C139.987 44.5632 139.966 44.7003 139.936 44.843H137.217C137.235 45.1886 137.331 45.4491 137.507 45.6247C137.688 45.8002 137.978 45.888 138.377 45.888C138.624 45.888 138.845 45.8551 139.038 45.7892C139.238 45.7179 139.389 45.6466 139.492 45.5753L139.881 46.2747ZM138.195 43.2548C137.887 43.2548 137.658 43.3399 137.507 43.5099C137.362 43.6745 137.274 43.8967 137.244 44.1765H138.93C138.954 43.8802 138.902 43.6526 138.776 43.4935C138.655 43.3344 138.461 43.2548 138.195 43.2548Z" fill="#0066FF"/>
</g>
<defs>
<clipPath id="clip0_1_12">
<rect width="142" height="48" fill="white"/>
</clipPath>
</defs>
</svg>
